<svg height='100px' width='100px'  fill="#000000" xmlns="http://www.w3.org/2000/svg" xmlns:xlink="http://www.w3.org/1999/xlink" version="1.1" x="0px" y="0px" viewBox="0 0 100 100" enable-background="new 0 0 100 100" xml:space="preserve"><path d="M86.239,75.642c-5.699,0-10.438,4.145-11.39,9.576H51.674V60.053h23.174c0.951,5.433,5.689,9.578,11.39,9.578  c6.384,0,11.578-5.194,11.578-11.578c0-6.383-5.194-11.576-11.578-11.576c-5.699,0-10.438,4.145-11.39,9.576H51.674V12.782  c0-1.104-0.896-2-2-2H25.152c-0.952-5.432-5.691-9.577-11.391-9.577c-6.383,0-11.577,5.193-11.577,11.577  c0,6.383,5.193,11.576,11.577,11.576c5.7,0,10.439-4.145,11.391-9.576h22.521v72.436c0,1.104,0.896,2,2,2H74.85  c0.951,5.433,5.689,9.577,11.39,9.577c6.383,0,11.576-5.193,11.576-11.577C97.815,80.835,92.622,75.642,86.239,75.642z   M86.237,50.477c4.179,0,7.578,3.398,7.578,7.576c0,4.179-3.399,7.578-7.578,7.578c-4.177,0-7.575-3.399-7.575-7.578  C78.662,53.875,82.061,50.477,86.237,50.477z M13.761,20.358c-4.178,0-7.577-3.398-7.577-7.576c0-4.178,3.399-7.577,7.577-7.577  s7.576,3.399,7.576,7.577C21.337,16.96,17.939,20.358,13.761,20.358z M86.239,94.795c-4.177,0-7.575-3.399-7.575-7.577  s3.398-7.576,7.575-7.576c4.178,0,7.576,3.398,7.576,7.576S90.417,94.795,86.239,94.795z"></path></svg>