<svg height='100px' width='100px'  fill="#000000" xmlns="http://www.w3.org/2000/svg" xmlns:xlink="http://www.w3.org/1999/xlink" version="1.1" x="0px" y="0px" viewBox="0 0 100 100" enable-background="new 0 0 100 100" xml:space="preserve"><g><path fill="#000000" d="M27.925,33.472"></path></g><path d="M88.622,12.389c-0.263-4.475-15.062-7.235-15.062-7.235c-7.667-2.367-13.702-2.609-18.132-1.567  c-6.584,1.548-18.671,7.982-25.069,10.176c-14.07,4.824-15.353,9.915-16.083,15.441c-0.646,4.884-1.074,14.185-1.399,19.657  c-0.395,6.627,1.125,12.3,1.547,16.14c0.17,1.54,0.572,3.462,1.107,5.487c-1.477,0.871-2.659,1.432-2.668,1.441l-2.22,1.195  l2.736-0.373c0.613-0.205,1.541-0.467,2.569-0.759c1.079,3.733,2.523,7.598,3.774,9.976c8.027,15.256,15.312,14.848,15.312,14.848  s2.129,0.558,4.475-0.267c3.537-1.243,7.752-4.593,7.39-9.502c-0.604-8.162-4.521-4.699-7.88-1.979c-3.36,2.721-0.104,3.872,0,4.904  c0.104,1.033-6.445-2.668-8.616-6.636c-3.438-6.282-5.086-11.236-5.751-15.071c1.971-1.304,3.893-2.827,5.717-4.557  c0.364-0.35,0.717-0.697,1.062-1.043c3.614-3.646,5.779-6.992,6.483-8.153l0.353-0.287c4.933-4.257,5.854-0.275,7.783-0.021  c1.343,0.178,3.542-2.317,4.088-3.558c0.313-0.711,0.164-3.026-0.09-5.324c0.909,5.333,2.716,12.755,5.791,13.249  c6.243,1.003,14.771-7.177,17.452-11.693c1.036-1.745,2.77-7.626,2.77-7.626l3.551,0.113c5.807-0.196,5.443-2.692,5.443-2.692  c-0.845-5.032,1.018-5.695,1.018-5.695C91.165,26.641,88.884,16.865,88.622,12.389z M24.374,62.256  c0.451-4.093,2.218-5.451,1.728-4.942c1.252-1.423,2.512-2.095,3.678-2.325C29.131,56.185,27.705,58.367,24.374,62.256z   M33.312,35.147c-1.332,1.24-3.561,0.458-2.081-2.02c0.673-1.127,1.976-1.757,4.992-1.634  C36.223,31.493,35.105,33.478,33.312,35.147z"></path></svg>