<svg height='100px' width='100px'  fill="#000000" xmlns="http://www.w3.org/2000/svg" xmlns:xlink="http://www.w3.org/1999/xlink" version="1.1" x="0px" y="0px" viewBox="0 0 100 100" enable-background="new 0 0 100 100" xml:space="preserve"><g><g display="none"><path display="inline" d="M84.629,16.356v14.476c0,1.055-0.529,1.912-1.182,1.912h-0.342c-0.652,0-1.188-0.857-1.188-1.912v-4.216    h-0.985v2.855c0,0.739-0.604,1.339-1.347,1.339h-0.33c-0.733,0-1.34-0.6-1.34-1.339v-2.737H76.04v0.479    c0.013,0.454,0.013,0.875,0,1.264v4.132c0,0.374-0.638,0.711-1.661,0.958l0.029,19.483h7.738c0.623,0,1.127,0.507,1.127,1.126    v1.717c0,0.625-0.504,1.129-1.127,1.129H19.699c-0.624,0-1.129-0.506-1.129-1.129v-1.717c0-0.619,0.506-1.126,1.129-1.126h34.262    c0,0,0,0,4.412-13.373c2.9-9.557,0.061-12.858-17.785-12.455c-10.192,0-12.872,7.387-12.872,9.505v2.966    c0,0.73-0.593,1.322-1.322,1.322h-1.293v3.763H24.89v1.451h-0.427v-1.451H24.25h-1.904v-0.857h1.904v-2.905h-0.044h-1.304    c-0.732,0-1.324-0.592-1.324-1.322v-22.41c0-0.732,0.592-1.324,1.324-1.324h3.494c0.729,0,19.855,7.021,33.726-0.356    c0-0.009-0.074-0.693,0.512-0.693h5.146h3.562h0.837c0.008,0,0.012,0.003,0.02,0.003c0.043,0,0.084-0.003,0.127-0.003    c4.129,0,5.729,0,5.729,1.365v4.296h1.146h0.73v-2.818c0-0.739,0.604-1.338,1.344-1.338h0.33c0.734,0,1.34,0.6,1.34,1.338v2.818    h0.988v-4.215c0-1.057,0.528-1.912,1.188-1.912h0.343C84.1,14.444,84.629,15.3,84.629,16.356z"></path></g><g display="none"><path display="inline" d="M79.475,53.68v-0.934c-0.156-7.517-3.133-10.022-3.133-10.022H58.273c0,0-0.703-0.627-0.859-2.506    V29.412c0,0,0.156-10.492-9.24-8.456c0,0-6.029,1.096-8.859,0.853c-0.125-0.859-0.595-1.603-1.27-2.088l0.013-0.784    c0-0.444-0.445-0.433-0.445-0.433l0.007-1.032c0.639,0,1.155-0.52,1.155-1.158c0-0.639-0.516-1.157-1.155-1.157h-0.432H36.75    c-0.107,0-0.19-0.016-0.259-0.042c0.156-0.073,0.299-0.167,0.428-0.278c2.584-0.286,12.399-1.787,12.399-1.787    c1.024-0.141,1.743-1.084,1.602-2.109c-0.141-1.024-1.084-1.743-2.109-1.604c-0.059,0.009-0.115,0.02-0.17,0.033l0,0l-11.59,2.852    c-0.334-0.356-0.804-0.577-1.328-0.577c-1.007,0-1.821,0.815-1.821,1.821c0,0.077,0.006,0.152,0.016,0.225v4.813h-1.056    c-0.502,0-0.392,0.451-0.392,0.451v0.736c-0.813,0.567-1.345,1.505-1.345,2.571V34.58c0,1.565,1.15,2.859,2.651,3.09v1.43h-0.759    v-0.312c0-0.176-0.173-0.317-0.388-0.317c-0.213,0-0.386,0.14-0.386,0.317v1.497c0,0.176,0.173,0.318,0.386,0.318    c0.214,0,0.388-0.141,0.388-0.318v-0.312h0.759v1.118l0.52,0.602h0.225v1.033H26.25c0,0-2.976,2.505-3.132,10.023v0.935    l-1.722,1.672v4.226H81.2v-4.228L79.475,53.68z M34.917,13.464c0-0.424,0.345-0.765,0.765-0.765c0.426,0,0.768,0.341,0.768,0.765    c0,0.423-0.342,0.767-0.768,0.767C35.262,14.229,34.917,13.887,34.917,13.464z M47.596,40.282c0,0-0.205,2.441-1.458,2.441H35.707    V41.69h0.225l0.52-0.616v-1.103h0.759v0.312c0,0.177,0.172,0.318,0.386,0.318c0.214,0,0.388-0.141,0.388-0.318v-1.497    c0-0.176-0.175-0.317-0.388-0.317c-0.213,0-0.386,0.14-0.386,0.317v0.312h-0.759v-1.4c1.622-0.119,2.901-1.469,2.901-3.12v-5.01    h6.943c0,0,1.591-0.021,1.591,2.14L47.596,40.282z"></path></g><g display="none"><path display="inline" d="M83.061,40.477v1.743c0,0.12-0.062,0.229-0.17,0.283c-0.056,0.03-5.582,2.929-12.664,3.72    c-2.477,0.277-4.978,0.417-7.432,0.417c-1.197,0-2.385-0.034-3.525-0.101c-3.062-0.182-5.854-0.611-8.094-1.24    c-4.305-1.212-7.206-1.702-7.993-1.823c-0.006,0-2.831-0.511-6.386-0.533l-1.003,2.95c-0.044,0.13-0.166,0.218-0.305,0.218    l-15.074-0.003c-0.177,0-0.322-0.145-0.322-0.322v-6.077c0-0.143,0.094-0.268,0.231-0.31c0.136-0.039,0.284,0.016,0.361,0.135    l-0.012-0.008c0.028,0.042,0.761,1.195,2.928,1.319c2.003,0.12,8.904-0.098,8.904-0.098c1.642,0,7.044-0.034,10.921,0.644    c0.837,0.126,3.861,0.626,8.35,1.893c2.92,0.823,6.729,1.259,10.99,1.259c2.375,0,4.803-0.138,7.217-0.406    c6.234-0.696,11.812-3.569,12.441-3.887l0.158-0.054c0.098-0.05,0.223-0.048,0.318,0.01    C82.997,40.264,83.061,40.364,83.061,40.477z M24.542,40.205c0,0,3.283,0.082,8.496-0.092c0,0,2.131-0.044,5.131,0.141    c1.651,0.084,3.4,0.23,4.944,0.48c2.274,0.306,4.644,0.761,6.797,1.437c0.592,0.154,1.209,0.318,1.865,0.504    c2.908,0.819,6.688,1.255,10.938,1.259c2.32-0.061,4.682-0.243,6.959-0.499c6.854-0.764,11.723-3.357,11.723-3.357    c0.744-0.342,0.646-1.193,0.646-1.193c-0.104-1.964-1.438-2.95-1.438-2.95c-0.569-0.709-3.562-0.876-4.918-0.709    c-3.951,0.503-8.817-0.81-8.817-0.81c-2.235-0.453-6.146-2.901-8.812-4.703l-2.068,2.077c-0.063,0.063-0.146,0.094-0.229,0.094    c-0.079,0-0.163-0.031-0.228-0.094c-0.127-0.125-0.127-0.329,0-0.455l1.984-1.992c-1.347-0.924-2.267-1.606-2.267-1.606    c-0.01-0.001-0.013-0.002-0.015-0.004l-2.396,2.396c-0.063,0.063-0.146,0.095-0.229,0.095c-0.082,0-0.166-0.031-0.229-0.095    c-0.126-0.126-0.126-0.329,0-0.455l2.324-2.322c-0.784-0.567-1.545-1.071-2.28-1.52l-2.593,2.593    c-0.063,0.062-0.145,0.094-0.228,0.094s-0.165-0.031-0.228-0.094c-0.125-0.126-0.125-0.33,0-0.456l2.481-2.479    c-4.72-2.75-8.154-3.175-8.154-3.175c-0.67-0.245-0.807,0.267-0.807,0.267l0.008,0.831c-1.497,0.559-5.226,1.107-8.991,1.458    C29.049,25.324,24.11,24,22.338,23.716c-0.545-0.087-0.739,0.397-0.739,0.397l-0.46,1.084c0,0-2.282,6.021-1.415,10.179    c0,0,0.033,0.585,0.226,1.487C20.145,37.768,20.736,40.381,24.542,40.205z"></path></g><g display="none"><path display="inline" d="M82.867,43.745v1.731c0,0.119-0.066,0.228-0.17,0.282c-0.055,0.03-5.549,2.911-12.588,3.698    c-2.463,0.275-4.949,0.416-7.389,0.416c-1.191,0-2.369-0.033-3.514-0.1c-3.046-0.181-5.818-0.606-8.046-1.233    c-4.28-1.204-7.163-1.691-7.945-1.811c-0.007,0-2.812-0.509-6.348-0.529l-0.999,2.932c-0.043,0.13-0.165,0.219-0.302,0.219    l-14.98-0.005c-0.176,0-0.32-0.143-0.32-0.319V42.98c0-0.141,0.093-0.266,0.23-0.307c0.135-0.039,0.282,0.017,0.358,0.134    l-0.012-0.008c0.028,0.043,0.756,1.189,2.91,1.312c1.991,0.119,8.851-0.098,8.851-0.098c1.632,0,7.003-0.034,10.857,0.641    c0.832,0.125,3.838,0.621,8.305,1.879c2.896,0.818,6.68,1.252,10.924,1.252c2.36,0,4.771-0.137,7.181-0.403    c6.194-0.692,11.733-3.549,12.364-3.864l0.156-0.053c0.098-0.05,0.223-0.05,0.312,0.009    C82.805,43.533,82.867,43.632,82.867,43.745z M24.695,43.473c0,0,3.263,0.082,8.445-0.092c0,0,2.118-0.042,5.102,0.142    c1.641,0.083,3.38,0.229,4.914,0.478c2.261,0.305,4.616,0.756,6.758,1.429c0.588,0.153,1.202,0.316,1.854,0.501    c2.896,0.815,6.649,1.249,10.873,1.25c2.312-0.059,4.652-0.24,6.916-0.494c6.814-0.761,11.654-3.338,11.654-3.338    c0.739-0.34,0.635-1.188,0.635-1.188c-0.104-1.953-1.434-2.933-1.434-2.933c-0.569-0.705-3.541-0.87-4.891-0.705    c-3.937,0.501-8.771-0.804-8.771-0.804c-2.229-0.45-6.107-2.884-8.758-4.676l-0.002,0.002c-0.021-0.015-0.027-0.033-0.053-0.046    c-0.443-0.293-1.021-0.801-1.648-1.427l-2.215,1.262c-0.076,0.043-0.162,0.052-0.242,0.031c-0.078-0.021-0.146-0.073-0.188-0.15    c-0.088-0.153-0.035-0.35,0.119-0.437l2.061-1.174c-0.59-0.608-1.227-1.312-1.881-2.066l-2.426,1.383    c-0.076,0.044-0.162,0.052-0.242,0.031c-0.08-0.023-0.148-0.075-0.193-0.15c-0.086-0.154-0.033-0.349,0.119-0.437l2.316-1.319    c-0.58-0.675-1.164-1.375-1.74-2.081l-2.691,1.531c-0.077,0.044-0.164,0.052-0.244,0.031c-0.079-0.022-0.148-0.073-0.193-0.151    c-0.087-0.153-0.033-0.349,0.12-0.437l2.598-1.479c-2.408-2.98-4.531-5.861-4.87-6.424c-0.614-1.024-4.3-0.238-4.976-0.086v-0.001    c-0.003,0.001-4.582,1.423-8.252,1.423c-4.984,0-8.826-0.045-10.587-0.327c-0.542-0.086-0.894,0.394-0.894,0.394l-0.298,1.079    c0,0-2.442,12.523-1.58,16.656c0,0,0.033,0.582,0.225,1.477C20.324,41.05,20.911,43.649,24.695,43.473z"></path></g><g display="none"><path display="inline" d="M85.451,39.412c-0.27-2.094-1.779-3.046-1.779-3.046c-0.671-0.713-3.891-0.648-5.326-0.363    c-4.195,0.858-9.517-0.159-9.517-0.159c-3.937-0.493-12.646-7.576-12.646-7.576c-6.812-4.987-9.833-5.971-9.833-5.971    c-0.739-0.209-0.844,0.352-0.844,0.352l-1.601,13.652l0.206,0.093c0.675,0.184,1.257,0.615,1.655,1.198    c0.013,0.019,0.026,0.036,0.038,0.055c0.015,0.021,0.027,0.044,0.042,0.065c0.272,0.433,0.444,0.941,0.478,1.487    c0.007,0.081,0.011,0.163,0.011,0.245c0.004,1.521-1.003,2.793-2.342,3.092l-0.355,1.702c0.011,0.09,0.022,0.178,0.039,0.262    c0.497,0.037,3.755,0.295,8.855,1.332c5.549,1.121,13.133,0.754,20.036-0.543c7.285-1.372,12.298-4.544,12.298-4.544    C85.637,40.318,85.451,39.412,85.451,39.412z M46.833,30.05c-0.358,0-0.646-0.289-0.646-0.646c0-0.355,0.288-0.645,0.646-0.645    c0.356,0,0.644,0.289,0.644,0.645C47.478,29.762,47.19,30.05,46.833,30.05z M48.102,40.521c-0.357,0-0.646-0.289-0.646-0.645    s0.289-0.645,0.646-0.645c0.356,0,0.646,0.289,0.646,0.645C48.747,40.232,48.458,40.521,48.102,40.521z M63.55,44.51    c-0.356,0-0.646-0.289-0.646-0.644c0-0.358,0.289-0.646,0.646-0.646c0.357,0,0.646,0.288,0.646,0.646    C64.195,44.221,63.906,44.51,63.55,44.51z M41.423,37.036c-0.157,0.005-0.312,0.024-0.46,0.057l-0.098-0.352l-5.517-7.697    l-1.539-1.845l-1.756,0.472c-4.266,1.486-10.509,1.63-12.433,1.567c-0.598-0.019-0.739,0.523-0.739,0.523l-0.341,1.216    c0,0-1.624,6.733-0.136,11.045c0,0,0.116,0.619,0.442,1.555c0.325,0.938,1.307,3.649,5.34,2.945c0,0,3.512-0.355,9.044-1.248    c0,0,4.785-0.657,8.31-0.726l0.448-2.557l0.178,0.033v-0.002c1.113-0.3,1.913-1.331,1.875-2.532    C43.997,38.09,42.825,36.992,41.423,37.036z M32.825,30.347c-0.355,0.011-0.654-0.27-0.665-0.626    c-0.011-0.355,0.268-0.654,0.626-0.665c0.355-0.012,0.653,0.268,0.665,0.625C33.463,30.038,33.182,30.334,32.825,30.347z     M38.917,40.629c-0.356,0.012-0.655-0.268-0.666-0.626c-0.013-0.355,0.268-0.654,0.624-0.664c0.357-0.012,0.655,0.267,0.667,0.625    C39.553,40.319,39.272,40.616,38.917,40.629z"></path></g><g display="none"><path display="inline" d="M84.865,40.745c0,0-5.012,3.172-12.297,4.543c-6.904,1.298-14.488,1.664-20.037,0.543    c-5.1-1.036-8.359-1.295-8.855-1.331c-0.016-0.084-0.027-0.172-0.039-0.262l0.355-1.702c1.34-0.298,2.347-1.57,2.342-3.092    c0-0.082-0.004-0.164-0.011-0.245c-0.033-0.545-0.205-1.054-0.478-1.487c-0.015-0.021-0.027-0.043-0.042-0.065    c-0.012-0.019-0.025-0.036-0.038-0.055c-0.398-0.583-0.98-1.015-1.655-1.199L43.904,36.3l1.601-13.652    c0,0,0.105-0.561,0.844-0.352c0,0,3.021,0.984,9.831,5.971c0,0,8.711,7.083,12.646,7.576c0,0,5.32,1.017,9.516,0.159    c1.436-0.285,4.656-0.351,5.326,0.363c0,0,1.51,0.952,1.779,3.046C85.451,39.412,85.637,40.318,84.865,40.745z M41.423,37.036    c-0.157,0.005-0.312,0.024-0.46,0.057l-0.098-0.352l-5.517-7.697l-1.539-1.845l-1.756,0.472    c-4.266,1.486-10.509,1.63-12.433,1.567c-0.598-0.019-0.739,0.523-0.739,0.523l-0.341,1.216c0,0-1.624,6.733-0.136,11.045    c0,0,0.116,0.619,0.442,1.555c0.325,0.938,1.307,3.649,5.34,2.945c0,0,3.512-0.355,9.044-1.248c0,0,4.785-0.657,8.31-0.726    l0.568-2.557l0.298,0.032v-0.002c0.741-0.3,1.792-1.331,1.755-2.533C44.118,38.09,42.825,36.992,41.423,37.036z"></path></g><g display="none"><path display="inline" d="M77.68,38.748C77.008,33.379,71.45,33.9,71.45,33.9s-2.673-0.014-5.455,1.843    c-2.782,1.855-7.279,5.78-12.185,2.275c0,0-0.928-0.585-0.664-2.063c0.213-1.224,3.756-4.298,10.5-2.762    c0,0,6.881,2.156,10.063-0.62l7.623-8.221c0,0,1.228-1.084,2.013-1.128c0.135-0.007,0.256,0.016,0.354,0.078    c-0.062-0.036-0.104-0.062-0.104-0.062s0.604,0.349,0.758-0.25c0.151-0.601-1.17-1.942-3.564,0.214l-6.602,6.636    c0,0-2.235,3.012-6.055,2.211c-3.63-0.761-10.599-3.832-15.951,1.918l0.032-0.13L28.87,29.104c0,0-7.498-1.312-10.726,1.016    l28.21,6.279l-27.658,4.532c3.003,2.61,10.588,1.984,10.588,1.984l22.563-3.594c0.31,0.314,0.562,0.496,0.562,0.496    c0.971,1.27,4.938,2.398,4.938,2.398c5.312,7.225,13.998,3.877,13.998,3.877S78.35,44.115,77.68,38.748z M49.073,37.563    c-0.453-0.39-0.504-1.073-0.115-1.525c0.39-0.452,1.073-0.503,1.525-0.114c0.453,0.39,0.503,1.073,0.115,1.526    C50.209,37.902,49.525,37.953,49.073,37.563z M72.628,43.91c-7.565,3.199-11.737-0.332-11.737-0.332    c-2.453-1.666-2.104-2.392-0.66-2.648c1.44-0.255,3.746-1.218,5.623-2.71c1.879-1.491,2.914-1.867,2.914-1.867    c5.277-2.391,6.782,1.536,6.782,1.536C77.009,41.48,72.628,43.91,72.628,43.91z"></path></g><g display="none"><path display="inline" d="M77.441,39.196c-0.428-5.151-5.758-4.875-5.758-4.875s-2.547-0.119-5.277,1.543    c-2.73,1.66-7.178,5.229-11.719,1.687c0,0-0.729-0.82-0.555-1.994c0.182-1.172,3.758-3.951,10.135-2.219    c0,0,6.479,2.331,9.637-0.193l8.588-8.28c0,0,1.205-0.986,1.959-0.997c0.129-0.001,0.242,0.026,0.338,0.089    c-0.055-0.036-0.096-0.063-0.096-0.063s0.562,0.356,0.729-0.209c0.178-0.567-1.033-1.9-3.408,0.062l-7.555,6.809    c0,0-2.257,2.786-5.854,1.87c-3.396-0.859-9.812-4.003-15.108,1.004l0.011-0.126l-27.121-0.935c0,0-7.269,0.089-9.89,2.844    l22.185,1.019l-21.828,0.397c2.527,2.84,9.789,3.172,9.789,3.172l26.962-0.234c1.229,1.12,4.295,2.132,4.295,2.132    c4.781,7.106,13.205,4.254,13.205,4.254S77.867,44.344,77.441,39.196z M50.836,37.296c-0.462-0.389-0.519-1.083-0.128-1.545    c0.392-0.462,1.083-0.519,1.546-0.126c0.461,0.39,0.518,1.082,0.127,1.544C51.991,37.631,51.298,37.689,50.836,37.296z     M72.414,43.924c-7.348,2.752-11.592-1.095-11.592-1.095c-1.176-0.703-1.51-2.055-0.121-2.242    c1.385-0.188,3.623-1.016,5.477-2.363c1.852-1.348,2.852-1.668,2.852-1.668c5.144-2.072,6.414,1.735,6.414,1.735    C76.691,41.777,72.414,43.924,72.414,43.924z"></path></g><g display="none"><path display="inline" d="M70.588,28.544v10.297c0,0-1.961-1.132-4.607-1.224v-1.744h-0.955v1.756    c-0.937,0.062-1.932,0.277-2.938,0.713v-2.949H61.13v3.377c-1.289,0.594-2.299,0.732-2.979,0.701    c0.062-0.194,0.107-0.391,0.107-0.606v-8.84c0-0.477-0.168-0.897-0.441-1.278c1.022,0.09,2.312,0.024,3.723-0.524    C65.037,26.846,69.889,27.579,70.588,28.544z M57.199,29.534c0.066,0.155,0.104,0.32,0.104,0.491v8.839    c0,0.156-0.037,0.302-0.094,0.446c-0.346,0.883-1.712,1.528-3.525,1.992v-2.354H52.73v2.575c-1.092,0.227-2.292,0.398-3.506,0.526    v-3.936H48.27v4.028c-1.484,0.128-2.945,0.193-4.202,0.211v-2.567h-0.955v2.573c-1.216-0.003-2.68-0.052-4.202-0.165V38.11h-0.954    v4.001c-1.399-0.129-2.798-0.317-4.062-0.573v-2.592h-0.954v2.376c-2.155-0.54-3.708-1.326-3.708-2.458v-8.839    c0-2.764,9.182-3.494,14.035-3.494c3.652,0,9.751,0.414,12.548,1.795l0,0c0.02,0.009,0.033,0.021,0.05,0.029    c0.209,0.106,0.403,0.215,0.571,0.332c0.013,0.008,0.021,0.02,0.033,0.028c0.166,0.118,0.312,0.242,0.434,0.374    c0.029,0.03,0.039,0.065,0.062,0.097C57.059,29.3,57.145,29.413,57.199,29.534z M39.672,30.025c0,0.295,1.61,0.537,3.594,0.537    s3.594-0.241,3.594-0.537s-1.609-0.537-3.594-0.537S39.672,29.729,39.672,30.025z M55.852,31.656l-0.299-0.562    c-1.979,1.049-6.917,1.755-12.286,1.755c-5.351,0-10.14-0.672-12.203-1.712l-0.286,0.57c2.145,1.082,7.047,1.779,12.489,1.779    C48.816,33.485,53.756,32.767,55.852,31.656z M71.484,28.902v10.262l1.877,1.247V30.148L71.484,28.902z"></path></g><g display="none"><path display="inline" d="M42.403,47.57l17.138-14.9v7.719l-12.7,11.042h-3.323c-0.615,0-1.115-0.5-1.115-1.125V47.57    L42.403,47.57z M59.541,18.741c0-0.615-0.505-1.115-1.119-1.115h-1.135L42.403,30.569v7.09L59.541,22.76V18.741z M58.422,51.432    c0.614,0,1.119-0.5,1.119-1.115v-1.679l-3.215,2.793H58.422L58.422,51.432z M47.785,53.834h5.83v-2.402h1.447l4.479-3.892v-6.049    l-11.756,10.22V53.834z M43.518,17.626c-0.615,0-1.115,0.5-1.115,1.115v2.269l3.892-3.384H43.518z M53.615,17.626v-2.571h-5.83    v2.571h-0.228l-5.155,4.482v7.36l13.622-11.842H53.615L53.615,17.626z M68.684,22.612c-0.254,0.222-0.514,0.43-0.77,0.624    l-0.674,0.639l-7.699,6.228v1.469L42.403,46.47v-2.49l-11.285,9.151l11.285-10.938v-3.435L59.542,23.86v1.808l4.658-4.47    l1.743-1.521c0.035-0.032,0.062-0.062,0.097-0.091c0.038-0.034,0.077-0.059,0.117-0.092l0.929-0.809l0.532-0.379    c0,0,2.31-1.928,3.498-0.77c0.03,0.031,0.053,0.077,0.077,0.114c0.021,0.018,0.047,0.025,0.062,0.043    C71.986,18.529,70.835,20.729,68.684,22.612z M70.077,18.693c-0.322-0.365-1.421,0.069-2.454,0.975    c-1.037,0.907-1.611,1.935-1.293,2.302c0.322,0.367,1.42-0.07,2.455-0.974C69.82,20.092,70.396,19.06,70.077,18.693z"></path></g><g display="none"><g display="inline"><path d="M83.836,30.363c-2.922-4.496-9.299-5.095-9.299-5.095c-6.992-0.505-9.732,4.27-9.732,4.27h-3.748     c0,0-2.062,0.2-6.146-1.621c-5.011-2.057-13.174-8.292-25.096-9.393c0,0-4.092-0.659-10.837,0.689c0,0-1.527,0.885,0.046,1.185     c10.564-1.124,16.933,1.199,20.229,2.323c3.298,1.125,9.367,5.095,9.367,5.095c3.077,2.129,7.319,3.642,7.319,3.642l4.146,1.678     l0.217,0.108c-0.76,0.79-2.815,1.807-2.815,1.807c-3.655,1.479-13.939,7.97-13.939,7.97l-3.021,1.542     c-6.686,3.278-10.48,3.708-10.48,3.708c-1.797,0.673-9.517,0.449-9.517,0.449c-1.498,0.823,0,1.573,0,1.573     c6.07,0.523,9.742,0,9.742,0c7.705-0.811,20.152-7.785,20.152-7.785s5.089-3.241,9.125-4.5c2.772-0.866,3.935-1.839,4.356-2.334     h4.57l-0.896,5.592l0.231,0.263c0,0,5.821,0,6.084,0c0.142,0,0.17-0.201,0.17-0.201l-0.92-5.933l1.049-0.015     c0,0,3.938,0.015,7.771,3.901c0,0,0.646,0.827,1.197,0.449c0.646-0.443-2.104-5.973-8.931-7.098l-4.53-0.375l-1.296-1.018     c0,0,0.896-0.677,1.117-0.8c1.722-1.172,4.121-1.349,4.121-1.349s4.319-0.608,7.506,1.157l2.146,1.315     C84.92,32.504,83.836,30.363,83.836,30.363z M64.841,29.518C64.939,29.462,65.186,29.327,64.841,29.518L64.841,29.518z      M65.297,33.763c-0.637,0-1.154-0.515-1.154-1.152c0-0.637,0.521-1.153,1.154-1.153c0.635,0,1.15,0.516,1.15,1.153     C66.447,33.248,65.934,33.763,65.297,33.763z"></path></g></g><g display="none"><g display="inline"><path d="M78.223,57.969c0.002,0.162-0.054,0.317-0.162,0.434l-3.562,3.558c-0.112,0.122-0.271,0.188-0.416,0.188     c-0.156,0.006-0.312-0.047-0.438-0.16L38.088,22.654l-5.468,6.003c-1.538,1.573-1.22,3.823-1.22,3.823l0.147,0.553     c0.043,0.146,0.026,0.303-0.046,0.436l-0.49,1.053c-0.075,0.14-0.198,0.235-0.337,0.276c-0.145,0.044-0.299,0.03-0.439-0.046     l-5.563-3.161c-0.134-0.073-0.234-0.196-0.277-0.339c-0.044-0.147-0.025-0.305,0.047-0.438l0.987-1.311     c0.071-0.133,0.195-0.236,0.341-0.278l0.671-0.199c0,0,2.509-0.574,4.307-5.557c0,0,1.517-4.543,3.334-6.551     c1.818-2.007,4.462-3.247,8.829-3.849c4.366-0.603,8.25-2.375,8.25-2.375s2.537-1.144,4.629-3.756l0.562-0.19l0.451,0.5     l-0.328,1.787l-2.521,2.344c0,0-3.927,3.335-9.557,5.816c-1.649,0.725-3.037,1.882-3.083,1.921L78.027,57.55     C78.146,57.659,78.215,57.809,78.223,57.969z"></path></g></g><g display="none"><path display="inline" d="M73.352,46.103c0.426,0.499,0.396,0.906,0.396,0.906v4.347H65.41c0,0-1.493-0.021-2.077-1.083    c0,0-1.535-2.519-8.312-2.292h-0.604c-6.774-0.228-8.309,2.292-8.309,2.292c-0.584,1.06-2.078,1.083-2.078,1.083h-8.333v-4.347    c0,0-0.038-0.407,0.39-0.906l3.141-3.619c0.122-0.164,0.487-0.255,0.487-0.255l1.605-0.48h26.292l2.109,0.48    c0,0,0.364,0.091,0.486,0.255L73.352,46.103z M42.563,17.533v1.06c0,0-0.51,0.658-2.63,0.658h-1.56V20.2H26.051    c0,0-1.768-0.06-7.674-0.406l-0.935-0.074c-0.024-0.002-0.05-0.004-0.075-0.004c-0.307,0-0.555,0.249-0.555,0.556    c0,0.115,0.035,0.222,0.094,0.312l0.054,0.078c0,0,6.593,10.89,21.134,11.037l3.074,0.014c2.883,0,5.447,2.463,5.447,5.345    c0,1.586-0.886,2.966-2.189,3.671h20.491c-1.426-0.992-2.358-2.643-2.358-4.509c0-3.791,3.459-10.649,15.771-12.732l5.076-1.132    c0,0,1.826-0.219,1.826-1.352V20.09l0.549-0.547v-2.01H42.563z"></path></g><g display="none"><g display="inline"><path d="M63.782,37.589c0-0.169,0.001-0.341,0.003-0.511c0.273-2.953,3.055-4.321,6.176-4.338V18.506H36.403v15.218l2.778,0.001     c3.315,0,6.265,1.515,6.265,4.828c0,1.802-0.995,3.369-2.463,4.188h23.469C64.838,41.598,63.782,39.717,63.782,37.589z"></path><path d="M35.893,20.482l-4.478-0.001v1.092h-7.912c0,0-6.728-0.026-6.757-0.026c-0.354,0-0.64,0.286-0.64,0.639     c0,0.132,0.04,0.255,0.109,0.357c0,0,3.173,9.325,19.676,9.585V20.482H35.893z"></path><polygon points="72.484,18.481 70.471,18.481 70.471,32.738 71.875,32.738 78.307,27.239 82.51,27.239 82.51,22.86    "></polygon><path d="M68.352,43.252h-26.85l-5.103,3.435c-0.491,0.574-0.448,1.042-0.448,1.042v3.546h7.72l1.188-1.253H64.99l1.188,1.253     H73.9v-3.546c0,0,0.043-0.467-0.447-1.042L68.352,43.252z"></path></g></g></g><path d="M24.134,4.295c0,0,1.012,3.526,7.864,7.913c0,0-3.037,1.82-4.586,5.049C22.258,12.469,24.134,4.295,24.134,4.295z   M45.681,51.199l-9.693,7.28c0,0-2.222,1.808-3.116,3.473c-0.278,0.517-0.561,0.914-0.522,1.186c0,0,0.053,0.544-0.329,1.246  c-1.042,1.915-3.534,5.479-7.625,5.413c0,0-7.453-0.151-10.229-6.012c0,0-2.333-3.777,1.375-10.379l4.611-9.797  c1.054-2.242,1.384-4.247,1.384-4.247l2.502-9.512c3.438-14.843,9.738-17.126,9.738-17.126s-1.039-5.229-0.031-10.288  c0,0,1.356,3.793,6.738,7.931c0,0,3.919,2.116,9.892,13.195c0,0,3.549,6.653,3.65,12.852C54.128,42.613,51.646,47.185,45.681,51.199  z M19.354,62.211C19.322,62.26,19.332,62.244,19.354,62.211L19.354,62.211z M19.61,57.009c0,0-0.594-0.877-1.285-0.104  c0,0-2.014,2.542-0.147,4.908c0,0,0.708,0.931,1.276,0.24C19.454,62.053,21.807,60.072,19.61,57.009z M37.974,27.714  c-4.016,0.271-4.857,3.009-4.857,3.009c-0.149,0.514,0.488,0.673,0.488,0.673c3.372,0.909,5.498-3.105,5.498-3.105  C39.532,27.592,37.974,27.714,37.974,27.714z M86.483,60.287c0,0-0.546-33.476-40.062-45.831c0,0,6.995,8.631,8.72,15.807  c1.727,7.176,1.727,14.354-6.721,21.529c0,0-1.636,1-1.636,2.999c0,0-0.636,8.447,2.362,18.077c0,0,5.632,15.807,3.998,21.803  c0,0-0.272,1.181-0.908,2.36c0,0-0.522,0.773,0.362,0.456C52.598,97.488,88.392,86.723,86.483,60.287z"></path></svg>
