<svg height='100px' width='100px'  fill="#000000" xmlns="http://www.w3.org/2000/svg" xmlns:xlink="http://www.w3.org/1999/xlink" version="1.1" x="0px" y="0px" viewBox="0 0 96 96" enable-background="new 0 0 96 96" xml:space="preserve"><g transform="translate(40, 0) scale(0.70) rotate(35)"><path d="M79.297,39.295c-4.801,0-8.707,3.904-8.707,8.703c0,4.801,3.906,8.707,8.707,8.707c4.799,0,8.703-3.906,8.703-8.707   C88,43.199,84.096,39.295,79.297,39.295z"></path><path d="M48.002,39.295c-4.796,0-8.705,3.904-8.705,8.703c0,4.801,3.909,8.707,8.705,8.707c4.799,0,8.706-3.906,8.706-8.707   C56.708,43.199,52.801,39.295,48.002,39.295z"></path><path d="M16.705,39.295C11.909,39.295,8,43.199,8,47.998c0,4.801,3.909,8.707,8.705,8.707c4.799,0,8.705-3.906,8.705-8.707   C25.41,43.199,21.504,39.295,16.705,39.295z"></path></g></svg>
