<svg xmlns="http://www.w3.org/2000/svg" xmlns:xlink="http://www.w3.org/1999/xlink" width="100" height="100" viewBox="0 0 100 100"><g transform="translate(50 135) scale(-2.8 2.8) rotate(0) translate(-50 -50)" style="fill:#000000"><svg fill="#000000" xmlns="http://www.w3.org/2000/svg" xmlns:xlink="http://www.w3.org/1999/xlink" version="1.1" x="0px" y="0px" viewBox="0 0 100 100" enable-background="new 0 0 100 100" xml:space="preserve"><g><path d="M59.081,54.577c-0.601-1.562,2.339-4.935,1.731-6.726c-0.579-1.709-1.313-3.295-2.299-4.808   c-0.517-0.793-1.541-0.35-1.955-0.253c-2.007,0.468-4.786-4.356-3.849-6.528c0.436-1.01,1.825-1.826,3.551-2.949   c0.152-0.1,0.743-0.51,1.604-1.107c0.818-0.625,1.576-1.187,1.892-1.484c0.372-0.354,1.422-3.02,1.668-3.631   c0.473-1.179,1.589-4.849,1.06-5.279c-1.469-0.707-7.187,7.098-9.11,9.957c-0.072,0.108-0.357,0.62-0.416,0.715   c-0.133,0.218-0.529,0.287-1.02,0.217c-0.664-0.286-1.216-0.532-2.039-0.827c-0.376-0.134-0.361-0.487-0.282-0.677   c0.916-2.227,3.363-7.173,5.505-9.564c0.532-0.594,1.251-1.334,0.423-1.494c-5.555-1.072-8.888,7.96-10.545,9.779   c-0.48,0.53-1.622,0.368-2.168,0.314c-15.983-1.955-30.929,8.854-33.895,24.902c-2.468,13.352,4.104,26.281,15.383,32.488   c0.352,0.193,1.148,0.267,1.527-0.051c1.135-0.951,2.443-3.032,3.631-5.717c0.587-1.131,1.21-2.566,1.692-4.168   c0.216-0.717,0.419-1.46,0.611-2.212c0.536-1.826,0.989-3.697,1.317-5.499c0.211-0.857,0.377-1.667,0.636-2.348   c0.339-0.884,0.186-2.038-0.045-2.598c-0.328-0.8-0.56-1.645-1.06-2.521c-0.47-2.985,0.252-5.976,2.031-8.417   c0.29-0.398,0.847-0.485,1.243-0.197c0.397,0.29,0.485,0.847,0.196,1.244c-1.501,2.06-2.108,4.579-1.714,7.096   c0.198,1.262,0.638,2.447,1.286,3.506c1.383,1.832,4.953,5.82,6.292,6.241c4.662,1.469,5.944,3.738,7.141,5.016   c2.804,2.99,1.937,5.812,2.883,6.146c1.801,0.635,2.192,0.672,3.033,0.602c1.711-0.144,3.148,1.119,4.569,0.167   c1.037-1.05,1.352-1.395,2.294-2.216c0.681-0.593,2.122-0.878,2.36-1.751c0.469-1.723,1.121-4.844,1.437-6.143   c0.807-3.323-3.798-7.4-4.301-10.597C61.388,61.157,59.814,56.483,59.081,54.577z M50.124,47.662c-0.02,0.103-0.5-0.01-1.017,0.095   c-0.99,0.2-2.459,0.563-3.499,0.372c-1.531-0.284-2.421-1.599-1.936-4.222c0.085-0.456,1.7-0.629,3.504-0.297   c1.42,0.264,2.328,2.345,2.695,3.479C49.988,47.446,50.16,47.462,50.124,47.662z"></path><path d="M61.816,30.894c-2.205,1.472-4.137,2.855-4.399,3.026c-1.303,0.847-2.889,1.888-3.219,2.651   c-0.707,1.641,1.392,5.284,2.907,4.93c0.375-0.087,1.386-0.891,1.785-1.236c1.868-1.617,4.856-4.15,8.046-6.975   c0.207-0.184,0.014-0.5-0.123-0.594c-1.349-0.92-3.119-1.602-4.21-1.912C62.324,30.706,62.167,30.659,61.816,30.894z"></path><path d="M90.933,11.585c-0.183,0.106-4.296,2.822-9.555,6.32c-0.144,0.095-0.045,0.225,0.011,0.252   c0.526,0.248,1.046,0.54,1.547,0.85c0.093,0.057,0.301,0.078,0.484-0.084c1.452-1.293,7.196-6.232,7.845-6.849   C91.917,11.456,91.57,11.212,90.933,11.585z"></path><path d="M71.38,24.544c-2.685,1.759-5.249,3.49-7.418,4.924c-0.225,0.147-0.103,0.412,0.091,0.492   c1.161,0.481,2.551,1.102,3.685,1.918c0.213,0.153,0.613,0.184,0.847-0.021c2.184-1.915,4.449-3.863,6.479-5.644   c0.083-0.072,0.181-0.271-0.027-0.382c-1.075-0.573-2.261-1.039-3.143-1.363C71.649,24.378,71.501,24.465,71.38,24.544z"></path><path d="M79.723,19.006c-1.96,1.355-4.159,2.685-6.228,4.13c-0.178,0.123-0.261,0.346,0.003,0.458   c0.83,0.354,1.705,0.794,2.496,1.312c0.14,0.091,0.431,0.118,0.651-0.074c2.314-2.024,4.242-3.729,5.387-4.704   c0.1-0.084,0.058-0.206-0.107-0.307c-0.578-0.353-1.222-0.615-1.814-0.864C79.978,18.901,79.859,18.911,79.723,19.006z"></path></g></svg></g></svg>
