<svg height='100px' width='100px'  fill="#000000" xmlns="http://www.w3.org/2000/svg" xmlns:xlink="http://www.w3.org/1999/xlink" version="1.1" x="0px" y="0px" viewBox="0 0 100 100" enable-background="new 0 0 100 100" xml:space="preserve"><path d="M8.249,53.88c-4.168,1.393-5.54,6.927-7.618,10.621c-2.078,3.697,1.5,5.656,3.232,8.081c1.732,2.424,5.31,2.653,8.772,2.77  c3.462,0.117,5.889-2.77,6.464-5.194c0.576-2.424-2.191-1.499-5.54-2.886c-3.349-1.384-6.235-2.541-4.619-5.191  C10.557,59.427,14.481,51.805,8.249,53.88z"></path><path d="M13.56,63.23c2.448,1.959,8.31,0.232,8.077,2.195c-0.229,1.962-1.139,4.965,0.012,4.272  c1.145-0.697,3.107-2.543,1.724-6.002c-1.387-3.468-6.581-1.966-8.313-1.966C13.33,61.73,12.405,62.307,13.56,63.23z"></path><path d="M15.638,55.729c-1.849,0.462-0.96,2.886,2.809,3.119c3.769,0.229,7.118-0.579,7.347,2.074c0.233,2.657-0.459,5.653,0,6.002  c0.462,0.347,2.308,0.579,2.424-2.999s0.924-7.389-5.078-7.621C17.138,56.075,15.638,55.729,15.638,55.729z"></path><path d="M16.33,51.575c-1.014,1.288,1.503,2.061,6.231,1.953c4.735-0.107,8.081,0.585,7.849,3.82  c-0.23,3.229-0.692,7.277-0.921,8.256c-0.23,0.972,1.616,2.361,2.424-2.72C32.72,57.805,34.798,51.227,30.18,51  C25.564,50.768,17.6,49.957,16.33,51.575z"></path><path d="M23.211,44.878c-2.86,1.888-4.229,3.697-1.92,3.232c2.308-0.459,10.424-0.784,11.79,0.415  c1.372,1.201,3.101,3.049,1.831,8.936c-1.27,5.888-1.5,7.152-0.575,6.979c0.924-0.17,1.962-0.516,2.538-3.635  c0.578-3.115,2.541-15.233-2.308-15.582C29.718,44.878,24.589,43.969,23.211,44.878z"></path><path d="M24.941,39.804c1.544-1.39,1.255-2.437,5.039-3.352c3.101-0.748,4.818,2.308,4.818,2.308s-1.038,1.273-2.77,2.657  c-1.732,1.384-4.156,0.924-5.197,0C25.793,40.492,24.941,39.804,24.941,39.804z"></path><path d="M33.081,24.104c-3.593,2.305-10.827,13.224-13.907,15.958c-3.077,2.737-8.847,9.894-8.271,9.548  c0.257-0.149,2.493-0.436,5.191-3.17c3.432-3.486,7.606-9.661,9.354-10.564c3.119-1.619,6.81-6.578,9.005-6.924  c2.191-0.349,6.694,0.113,6.924-1.503c0.232-1.616,0-2.424-2.541-4.389c-2.538-1.959-3.924-9.002-2.192-11.885  c1.732-2.89,3.582-2.311,5.311,1.383c1.729,3.694,2.191,6,2.191,8.194c0,2.195,2.89-7.732-2.191-12.58  c-5.081-4.849-6.694-2.886-7.502,2.308c-0.811,5.196,0.808,11.199,0,12.353C33.642,23.985,33.081,24.104,33.081,24.104z"></path><path d="M44.263,58.567c0.429-6.786-1.384-18.883-2.079-16.459c-0.691,2.424,0.349,12.583-0.808,15.815  c-1.151,3.229-2.421,6.807-2.192,2.424c0.23-4.389,1.038-13.603,0.462-17.366c-0.579-3.757-0.811-7.624-4.849-8.665  c-4.041-1.038-0.197-3.289,2.958-2.251c3.161,1.041,6.637,3.694,7.207,9.466c0.569,5.77,2.877,16.159,1.032,17.545  C44.146,60.461,44.143,60.479,44.263,58.567z"></path><path d="M49.111,13.367c-2.278-0.253,1.271,2.886,0.232,4.735c-1.041,1.846-5.427,9.599-5.311,12.011  c0.113,2.415,2.654,6.801,3.349,6.338c0.692-0.461,0.692-10.155,1.962-13.045c0.543-1.24,1.455-2.845,2.451-4.3  c0.733-1.064,1.766-2.821,3.089-3.083C56.613,15.678,50.148,13.483,49.111,13.367z"></path><path d="M56.383,15.792c-1.141,0.262-1.206,3.832-1.591,4.905c-0.212,0.584-0.99,0.999-1.295,1.33  c-1.27,1.38-3.271,7.961-3.482,10.04c-0.212,2.078-1.941,10.161-0.671,9.466c1.271-0.694,4.271-9.979,4.846-14.049  c0.271-1.9,1.317-3.918,2.521-5.556c1.381-1.873,2.967-3.244,3.826-3.369C62.153,18.332,56.383,15.792,56.383,15.792z"></path><path d="M61.808,18.791c-2.1,0.194-1.927,2.403-3.024,4.669c-0.229,0.471-0.482,0.963-0.784,1.461  c-1.732,2.875-4.152,11.253-5.193,15.141c-0.36,1.36-2.698,4.106-3.277,6.533c-1.079,4.526-0.34,8.802,0.486,6.932  c1.271-2.871,6.866-17.651,7.657-21c0.79-3.346,2.543-7.94,3.568-7.956c1.032-0.009,5.302-1.738,5.761-2.433  C67.463,21.448,61.808,18.791,61.808,18.791z"></path><path d="M68.042,22.605c-0.987-0.086-1.644,2.066-3.077,4.184c-0.575,0.853-2.149,1.7-2.579,2.394  c-1.503,2.424-4.965,9.231-5.308,12.234c-0.349,3.003-3.005,8.871-4.272,12.112c-1.271,3.241-4.732,8.552-3.927,9.356  c0.811,0.812,2.272,4.404,3.271,4.223c1.002-0.183,2.052-9.84,2.74-12.515c0.686-2.672,2.647-7.388,6.688-11.611  c4.041-4.222,7.964-11.262,9.811-12.183c1.849-0.924,4.618-3.289,4.618-3.289s-3.924-3.271-4.27-2.588  c-0.197,0.385-0.967,2.245-2.293,4.219c-1.026,1.524-2.872,2.421-3.825,3.45c-2.194,2.361-6.394,10.161-6.023,7.472  c0.367-2.687,4.521-10.421,6.715-12.153c2.194-1.729,4.615-2.884,4.734-3.459C71.157,23.872,68.042,22.605,68.042,22.605z"></path><path d="M76.698,28.488c-0.328,1.553-0.948,2.764-2.341,4.195c-0.576,0.587-2.201,1.154-2.74,1.694  c-1.843,1.846-10.544,11.217-12.022,15.248c-1.479,4.025-6.098,17.157-5.748,20.171c0.343,3.018,1.887,6.018,2.152,3.938  c0.268-2.078,0.038-9.303,1.651-12.329c1.619-3.023,8.659-16.411,10.854-17.911c1.431-0.981,4.646-4.875,7.377-7.562  c1.443-1.422,3.095-2.508,3.937-2.651C82.238,32.877,76.698,28.488,76.698,28.488z"></path><path d="M80.968,33.283c-0.077,1.688-0.054,3.62-1.306,5.104c-0.591,0.698-2.347,0.68-3.193,1.333  c-2.657,2.042-11.543,13.814-12.813,17.508c-1.271,3.694-6.235,16.045-6.235,18.818c0,2.771,1.574,5.653,2.174,3.805  c0.597-1.846,3.482-13.502,5.215-15.926c1.732-2.425,5.54-8.772,7.272-11.08c1.729-2.31,7.735-10.275,9.927-11.775  c2.193-1.5,5.079-2.77,4.617-3.924C86.164,35.99,80.968,33.283,80.968,33.283z"></path><path d="M88.278,39.374c-0.838,0.349-2.097,2.376-3.346,4.261c-0.814,1.229-1.627,2.395-2.313,2.994  c-1.729,1.518-11.772,12.413-12.697,15.158c-0.924,2.75-5.655,13.601-6.464,16.487c-0.805,2.883-1.5,8.655,0,7.734  c1.503-0.927,4.156-12.354,5.656-14.891c1.5-2.538,3.232-3.492,2.653-0.939c-0.575,2.556-6.043,15.243-5.352,18.013  s2.075,1.729,2.886-1.846c0.806-3.578,4.432-12.807,4.314-17.536c-0.116-4.732,1.038-7.275,2.771-9.12  c1.729-1.847,9.466-11.456,11.428-13.061c1.963-1.598,4.849-3.793,4.849-3.793L88.278,39.374z"></path><path d="M95.265,44.458c-1.911,0.319-1.896,4.094-3.116,5.236c-1.22,1.146-2.257,0-5.886,4.491  c-5.148,6.369-8.199,12.467-9.123,17.545c-0.989,5.45-4.754,13.821-5.768,16.16c-1.156,2.654-2.194,6.349-1.39,6.694  c0.812,0.35,4.849-3.808,6.465-7.272c1.616-3.461,4.195-11.542,5.159-14.196c0.96-2.653,2.845-9.986,4.077-12.004  c2.126-3.485,6.754-5.29,8.146-7.81c0.954-1.729,6.17-2.913,6.17-2.913S97.179,44.136,95.265,44.458z"></path><path d="M32.371,10.83c-4.153-1.619-7.585-2.311-8.524-3.349c-0.939-1.041,0.217,2.884,1.717,5.194  c1.5,2.308,3.534,6.694,3.957,5.54c0.429-1.157-2.72-4.601-1.205-5.358C29.837,12.097,32.371,10.83,32.371,10.83z"></path></svg>